<svg width="19" height="19" viewBox="0 0 19 19" fill="none" xmlns="http://www.w3.org/2000/svg">
<g filter="url(#filter0_ii_14_190)">
<path d="M9.82812 18.6875C7.30442 18.6875 4.88409 17.685 3.09956 15.9004C1.31504 14.1159 0.3125 11.6956 0.3125 9.17188C0.3125 5.31641 2.52734 1.85961 5.95666 0.367054C6.07752 0.314379 6.21145 0.29933 6.34098 0.323866C6.47052 0.348402 6.58967 0.411387 6.68289 0.504612C6.77612 0.597838 6.8391 0.716982 6.86364 0.846519C6.88817 0.976057 6.87312 1.10998 6.82045 1.23084C6.4267 2.13483 6.21875 3.2927 6.21875 4.57813C6.21875 9.10133 9.89867 12.7813 14.4219 12.7813C15.7073 12.7813 16.8652 12.5733 17.7692 12.1796C17.89 12.1269 18.0239 12.1118 18.1535 12.1364C18.283 12.1609 18.4022 12.2239 18.4954 12.3171C18.5886 12.4103 18.6516 12.5295 18.6761 12.659C18.7007 12.7886 18.6856 12.9225 18.6329 13.0433C17.1404 16.4727 13.6836 18.6875 9.82812 18.6875Z" fill="#5B7B99"/>
</g>
<defs>
<filter id="filter0_ii_14_190" x="-1.6875" y="-1.6876" width="22.375" height="22.3751" filterUnits="userSpaceOnUse" color-interpolation-filters="sRGB">
<feFlood flood-opacity="0" result="BackgroundImageFix"/>
<feBlend mode="normal" in="SourceGraphic" in2="BackgroundImageFix" result="shape"/>
<feColorMatrix in="SourceAlpha" type="matrix" values="0 0 0 0 0 0 0 0 0 0 0 0 0 0 0 0 0 0 127 0" result="hardAlpha"/>
<feOffset dx="2" dy="2"/>
<feGaussianBlur stdDeviation="2.5"/>
<feComposite in2="hardAlpha" operator="arithmetic" k2="-1" k3="1"/>
<feColorMatrix type="matrix" values="0 0 0 0 0.582748 0 0 0 0 0.606088 0 0 0 0 0.634615 0 0 0 0.8 0"/>
<feBlend mode="normal" in2="shape" result="effect1_innerShadow_14_190"/>
<feColorMatrix in="SourceAlpha" type="matrix" values="0 0 0 0 0 0 0 0 0 0 0 0 0 0 0 0 0 0 127 0" result="hardAlpha"/>
<feOffset dx="-2" dy="-2"/>
<feGaussianBlur stdDeviation="2.5"/>
<feComposite in2="hardAlpha" operator="arithmetic" k2="-1" k3="1"/>
<feColorMatrix type="matrix" values="0 0 0 0 0.120377 0 0 0 0 0.339966 0 0 0 0 0.596154 0 0 0 0.9 0"/>
<feBlend mode="normal" in2="effect1_innerShadow_14_190" result="effect2_innerShadow_14_190"/>
</filter>
</defs>
</svg>
